<svg xmlns="http://www.w3.org/2000/svg" width="64" height="64" viewBox="0 0 64 64">
  <defs>
    <radialGradient id="peaGlow" cx="38%" cy="35%" r="62%">
      <stop offset="0%" stop-color="#b8ffad"/>
      <stop offset="60%" stop-color="#63db53"/>
      <stop offset="100%" stop-color="#2f8d2c"/>
    </radialGradient>
    <linearGradient id="leafVein" x1="0" y1="0" x2="1" y2="0">
      <stop offset="0%" stop-color="#2f7d2c"/>
      <stop offset="100%" stop-color="#4aad44"/>
    </linearGradient>
  </defs>
  <!-- Leaf body -->
  <path d="M32 8 C14 18 8 32 18 48 C24 56 32 58 32 58 C32 58 40 56 46 48 C56 32 50 18 32 8Z"
        fill="url(#peaGlow)" stroke="#2a6e28" stroke-width="2.5"/>
  <!-- Center vein -->
  <path d="M32 12 L32 54" stroke="url(#leafVein)" stroke-width="2.2" fill="none" stroke-linecap="round"/>
  <!-- Side veins -->
  <path d="M32 22 L22 30" stroke="#3a8a36" stroke-width="1.5" fill="none" stroke-linecap="round"/>
  <path d="M32 22 L42 30" stroke="#3a8a36" stroke-width="1.5" fill="none" stroke-linecap="round"/>
  <path d="M32 32 L20 40" stroke="#3a8a36" stroke-width="1.3" fill="none" stroke-linecap="round"/>
  <path d="M32 32 L44 40" stroke="#3a8a36" stroke-width="1.3" fill="none" stroke-linecap="round"/>
  <path d="M32 42 L24 48" stroke="#3a8a36" stroke-width="1" fill="none" stroke-linecap="round"/>
  <path d="M32 42 L40 48" stroke="#3a8a36" stroke-width="1" fill="none" stroke-linecap="round"/>
  <!-- Highlight -->
  <ellipse cx="26" cy="24" rx="6" ry="8" fill="#c8ffbe" opacity="0.55" transform="rotate(-15 26 24)"/>
  <!-- Dew drop -->
  <circle cx="24" cy="36" r="3" fill="#e8fff0" opacity="0.7"/>
  <circle cx="23" cy="35" r="1.2" fill="#ffffff" opacity="0.9"/>
</svg>
