<svg xmlns="http://www.w3.org/2000/svg" width="96" height="96" viewBox="0 0 96 96">
  <!-- Pixel-ish round cactus core -->
  <g shape-rendering="crispEdges">
    <rect x="26" y="22" width="44" height="4" fill="#9fcf72"/>
    <rect x="20" y="26" width="56" height="6" fill="#8fc063"/>
    <rect x="16" y="32" width="64" height="32" fill="#79ab4f"/>
    <rect x="20" y="64" width="56" height="6" fill="#6f9f47"/>
    <rect x="26" y="70" width="44" height="4" fill="#648e3f"/>

    <rect x="32" y="30" width="4" height="36" fill="#8ec664" opacity="0.65"/>
    <rect x="46" y="28" width="4" height="40" fill="#97d06e" opacity="0.72"/>
    <rect x="60" y="30" width="4" height="36" fill="#87be5e" opacity="0.65"/>
  </g>

  <circle cx="48" cy="48" r="30" fill="none" stroke="#355a2f" stroke-width="2.2"/>

  <!-- Needle clusters -->
  <g stroke="#f1f2b7" stroke-width="1.8" stroke-linecap="round">
    <path d="M48 14 L48 6"/><path d="M48 14 L44 8"/><path d="M48 14 L52 8"/>
    <path d="M72 24 L79 18"/><path d="M72 24 L80 24"/><path d="M72 24 L76 30"/>
    <path d="M82 48 L90 48"/><path d="M82 48 L88 44"/><path d="M82 48 L88 52"/>
    <path d="M72 72 L79 78"/><path d="M72 72 L80 72"/><path d="M72 72 L76 66"/>
    <path d="M48 82 L48 90"/><path d="M48 82 L44 88"/><path d="M48 82 L52 88"/>
    <path d="M24 72 L17 78"/><path d="M24 72 L16 72"/><path d="M24 72 L20 66"/>
    <path d="M14 48 L6 48"/><path d="M14 48 L8 44"/><path d="M14 48 L8 52"/>
    <path d="M24 24 L17 18"/><path d="M24 24 L16 24"/><path d="M24 24 L20 30"/>
  </g>

  <!-- Inner spine star -->
  <g stroke="#e6eaa9" stroke-width="1.2" stroke-linecap="round">
    <path d="M48 40 L48 56"/><path d="M40 48 L56 48"/>
    <path d="M42 42 L54 54"/><path d="M54 42 L42 54"/>
  </g>
</svg>
