<svg xmlns="http://www.w3.org/2000/svg" width="96" height="96" viewBox="0 0 96 96">
  <defs>
    <radialGradient id="vineLeaf" cx="42%" cy="32%" r="68%">
      <stop offset="0%" stop-color="#c8f8a0"/>
      <stop offset="60%" stop-color="#6ab84e"/>
      <stop offset="100%" stop-color="#3a7a28"/>
    </radialGradient>
    <radialGradient id="tomatoGlow" cx="35%" cy="30%" r="60%">
      <stop offset="0%" stop-color="#ff8888"/>
      <stop offset="60%" stop-color="#e84848"/>
      <stop offset="100%" stop-color="#b82020"/>
    </radialGradient>
  </defs>
  <!-- Background glow circle -->
  <circle cx="48" cy="48" r="38" fill="#f0ffe4" opacity="0.6"/>
  <!-- Main leaf shape -->
  <path d="M48 12 C30 26 22 44 32 66 C38 76 48 82 48 82 C48 82 58 76 64 66 C74 44 66 26 48 12Z"
        fill="url(#vineLeaf)" stroke="#2a5e24" stroke-width="3"/>
  <!-- Leaf veins -->
  <path d="M48 16 L48 78" stroke="#2a5e24" stroke-width="2.5" fill="none" stroke-linecap="round"/>
  <path d="M48 30 L34 42" stroke="#3a7a2e" stroke-width="1.8" fill="none" stroke-linecap="round"/>
  <path d="M48 30 L62 42" stroke="#3a7a2e" stroke-width="1.8" fill="none" stroke-linecap="round"/>
  <path d="M48 46 L30 58" stroke="#3a7a2e" stroke-width="1.5" fill="none" stroke-linecap="round"/>
  <path d="M48 46 L66 58" stroke="#3a7a2e" stroke-width="1.5" fill="none" stroke-linecap="round"/>
  <!-- Curling vine tendrils -->
  <path d="M28 44 C18 40 14 48 20 54" stroke="#4a8a3a" stroke-width="2.5" fill="none" stroke-linecap="round"/>
  <path d="M68 44 C78 40 82 48 76 54" stroke="#4a8a3a" stroke-width="2.5" fill="none" stroke-linecap="round"/>
  <path d="M32 68 C24 72 22 66 26 62" stroke="#4a8a3a" stroke-width="2" fill="none" stroke-linecap="round"/>
  <path d="M64 68 C72 72 74 66 70 62" stroke="#4a8a3a" stroke-width="2" fill="none" stroke-linecap="round"/>
  <!-- Tomato fruits -->
  <circle cx="22" cy="52" r="7" fill="url(#tomatoGlow)" stroke="#8a2020" stroke-width="1.5"/>
  <ellipse cx="20" cy="49" rx="2.5" ry="3" fill="#ffb0b0" opacity="0.55"/>
  <circle cx="74" cy="52" r="6.5" fill="url(#tomatoGlow)" stroke="#8a2020" stroke-width="1.5"/>
  <ellipse cx="72" cy="49" rx="2.2" ry="2.8" fill="#ffb0b0" opacity="0.5"/>
  <circle cx="48" cy="18" r="5" fill="url(#tomatoGlow)" stroke="#8a2020" stroke-width="1.2"/>
  <ellipse cx="46" cy="16" rx="1.8" ry="2.2" fill="#ffb0b0" opacity="0.55"/>
  <!-- Vine hooks/thorns -->
  <path d="M26 38 L22 34" stroke="#2a5e24" stroke-width="2" stroke-linecap="round"/>
  <path d="M70 38 L74 34" stroke="#2a5e24" stroke-width="2" stroke-linecap="round"/>
  <path d="M34 64 L30 68" stroke="#2a5e24" stroke-width="1.8" stroke-linecap="round"/>
  <path d="M62 64 L66 68" stroke="#2a5e24" stroke-width="1.8" stroke-linecap="round"/>
  <!-- Center highlight -->
  <ellipse cx="42" cy="34" rx="8" ry="12" fill="#e0ffd0" opacity="0.35" transform="rotate(-10 42 34)"/>
</svg>
