<svg xmlns="http://www.w3.org/2000/svg" width="156" height="156" viewBox="0 0 156 156">
  <ellipse cx="78" cy="142" rx="29" ry="11" fill="#151319" opacity="0.38"/>

  <rect x="31" y="24" width="94" height="66" rx="12" fill="#7d4f56" stroke="#171c22" stroke-width="6"/>
  <rect x="24" y="84" width="108" height="48" rx="8" fill="#3a465c" stroke="#171c22" stroke-width="6"/>

  <rect x="18" y="30" width="12" height="58" rx="4" fill="#3b2d2f" stroke="#171c22" stroke-width="4"/>
  <rect x="126" y="30" width="12" height="58" rx="4" fill="#3b2d2f" stroke="#171c22" stroke-width="4"/>

  <polygon points="48,16 40,29 52,27" fill="#d3636f" stroke="#171c22" stroke-width="4"/>
  <polygon points="108,16 116,29 104,27" fill="#d3636f" stroke="#171c22" stroke-width="4"/>

  <circle cx="62" cy="55" r="10.5" fill="#fff1ec" stroke="#171c22" stroke-width="5"/>
  <circle cx="94" cy="55" r="10.5" fill="#fff1ec" stroke="#171c22" stroke-width="5"/>
  <circle cx="62" cy="55" r="2.4" fill="#171c22"/>
  <circle cx="94" cy="55" r="2.4" fill="#171c22"/>
  <path d="M57 72 L99 72" stroke="#171c22" stroke-width="5" stroke-linecap="round"/>
  <rect x="70" y="71" width="16" height="6" rx="2" fill="#d36873" stroke="#171c22" stroke-width="3"/>

  <path d="M26 94 L12 100 L23 107 Z" fill="#171c22"/>
  <path d="M130 94 L144 100 L133 107 Z" fill="#171c22"/>

  <ellipse cx="58" cy="99" rx="13" ry="7.2" fill="#9f7f84" opacity="0.92" stroke="#171c22" stroke-width="3"/>
  <ellipse cx="100" cy="112" rx="11" ry="7" fill="#c74858" opacity="0.94"/>

  <rect x="50" y="132" width="9" height="12" rx="2" fill="#171c22"/>
  <rect x="98" y="132" width="9" height="12" rx="2" fill="#171c22"/>

  <rect x="5" y="24" width="30" height="17" rx="3" fill="#5e6573" stroke="#171c22" stroke-width="4"/>
  <rect x="121" y="24" width="30" height="17" rx="3" fill="#5e6573" stroke="#171c22" stroke-width="4"/>
</svg>
