<svg xmlns="http://www.w3.org/2000/svg" width="112" height="112" viewBox="0 0 112 112">
  <ellipse cx="56" cy="99" rx="18" ry="7" fill="#14191f" opacity="0.34"/>

  <rect x="30" y="16" width="50" height="42" rx="9" fill="#b79a74" stroke="#1c2328" stroke-width="4"/>
  <rect x="24" y="54" width="62" height="33" rx="5" fill="#c16a2c" stroke="#1c2328" stroke-width="4"/>

  <rect x="35" y="11" width="40" height="10" rx="3" fill="#e5b63f" stroke="#1c2328" stroke-width="3"/>
  <rect x="52" y="9" width="6" height="8" rx="2" fill="#fff4b9"/>

  <circle cx="48" cy="38" r="6.5" fill="#f7f0e6" stroke="#1c2328" stroke-width="3"/>
  <circle cx="66" cy="38" r="5.8" fill="#f7f0e6" stroke="#1c2328" stroke-width="3"/>
  <circle cx="48" cy="38" r="1.7" fill="#1c2328"/>
  <circle cx="66" cy="38" r="1.6" fill="#1c2328"/>
  <path d="M46 49 L66 49" stroke="#1c2328" stroke-width="3.2" stroke-linecap="round"/>

  <path d="M26 61 L16 64 L23 69 Z" fill="#1c2328"/>
  <ellipse cx="41" cy="67" rx="9" ry="5.2" fill="#d6b087" opacity="0.9" stroke="#1c2328" stroke-width="2"/>
  <ellipse cx="69" cy="77" rx="8" ry="5.1" fill="#8d3d22" opacity="0.92"/>

  <rect x="36" y="88" width="6" height="10" rx="1.5" fill="#1c2328"/>
  <rect x="68" y="88" width="6" height="10" rx="1.5" fill="#1c2328"/>

  <rect x="84" y="25" width="6" height="44" rx="2" fill="#5b4538" stroke="#1c2328" stroke-width="3"/>
  <rect x="74" y="14" width="26" height="15" rx="2" fill="#9ca3ab" stroke="#1c2328" stroke-width="3"/>
  <rect x="76" y="32" width="10" height="9" rx="1.5" fill="#6f767f" stroke="#1c2328" stroke-width="2"/>
</svg>
