<svg xmlns="http://www.w3.org/2000/svg" width="96" height="96" viewBox="0 0 96 96">
  <ellipse cx="48" cy="84" rx="16" ry="6" fill="#10171b" opacity="0.3"/>

  <rect x="25" y="14" width="46" height="40" rx="8" fill="#7fc3a2" stroke="#182228" stroke-width="4"/>
  <rect x="21" y="50" width="54" height="28" rx="4" fill="#3c78c8" stroke="#182228" stroke-width="4"/>

  <circle cx="42" cy="35" r="6" fill="#f1faf7" stroke="#182228" stroke-width="3"/>
  <circle cx="58" cy="35" r="5.4" fill="#f1faf7" stroke="#182228" stroke-width="3"/>
  <circle cx="42" cy="35" r="1.5" fill="#182228"/>
  <circle cx="58" cy="35" r="1.4" fill="#182228"/>
  <path d="M40 46 L57 46" stroke="#182228" stroke-width="3" stroke-linecap="round"/>

  <path d="M24 56 L15 59 L21 64 Z" fill="#182228"/>
  <path d="M72 56 L81 59 L75 64 Z" fill="#182228"/>

  <ellipse cx="37" cy="62" rx="8" ry="5" fill="#86d7b1" opacity="0.9" stroke="#182228" stroke-width="2"/>
  <ellipse cx="61" cy="72" rx="7" ry="4.5" fill="#d94939" opacity="0.92"/>

  <path d="M32 80 L36 80 L35 86 L31 86 Z" fill="#182228"/>
  <path d="M60 80 L64 80 L63 86 L59 86 Z" fill="#182228"/>
</svg>
